<svg 
  xmlns="http://www.w3.org/2000/svg" 
  width="800" 
  height="600" 
  viewBox="0 0 800 600">

  <g 
    transform="translate(-452 -152.441)">
    
    <path 
      id="Path_289-460" 
      data-name="Path 289" 
      d="M510.8,643.322,519.94,671.6s-8.267,26.541-4.351,56.128,1.74,30.457,1.74,30.457-39.126-2.252-35.21,9.5,42.172,4.863,42.172,4.863,7.347-1.978,10.828-22.863,12.232-61.112,12.232-61.112L539.122,650.6Z" 
      fill="#ffb9b9" 
    />

    <path 
      id="Path_291-461" 
      data-name="Path 291" 
      d="M553.211,742.808l34.808-1.3,26.541-3.916-7.832,26.106-64.4,1.74Z" 
      fill="#ffb9b9" 
    />

    <path 
      id="Path_292-462" 
      data-name="Path 292" 
      d="M702.247,784.73s-.435-9.572-4.351-9.137-1.305-3.481,2.175-4.351,13.488-5.221,13.488-5.221l39.594,2.611s25.671,22.625,15.229,34.808-37.419,1.305-37.419,1.305l-29.152.435S692.24,789.516,702.247,784.73Z" 
      fill="#090814" 
    />

    <path 
      id="Path_293-463" 
      data-name="Path 293" 
      d="M618.911,712.786l12.618,59.174,26.106-5.221-14.793-73.967-15.664-8.267Z" 
      fill="#ffb9b9" 
    />

    <path 
      id="Path_294-464" 
      data-name="Path 294" 
      d="M567.8,743.83S494.7,776.9,525.6,810.4c0,0,0,15.664,32.633,12.618s95.722-8.7,98.768-6.962,12.618-34.373,4.351-36.113-18.274-3.916-18.274-3.916,8.7-1.305,8.7-8.7c0,0,24.8-1.74,32.2-17.4s14.358-27.411,14.358-27.411L715.3,766.02s19.58-36.113,34.373-20.015c0,0-16.534-103.989-29.152-113.561s-21.32-12.618-33.068-3.916-22.625,30.892-22.625,30.892Z" 
      fill="#090814" 
    />

    <path 
      id="Path_295-465" 
      data-name="Path 295" 
      d="M742.277,792.562a98.038,98.038,0,0,0-8.7,7.4c-3.481,3.481-8.267,1.74-8.7,0s-8.267,1.305-9.137,13.923-6.091,23.931,7.832,27.846,13.488,15.229,13.488,15.229a46.934,46.934,0,0,0,35.243,2.176c19.58-6.526,12.618-13.488,12.618-13.488l-26.106-43.075S751.849,789.516,742.277,792.562Z" 
      fill="#090814" 
    />

    <path 
      id="Path_296-466" 
      data-name="Path 296" 
      d="M670.05,576.751s41.77,14.358,46.121,17.4,23.931,17.4,14.358,24.8-17.4,12.183-36.113,6.527-39.594-23.06-39.594-23.06Z" 
      fill="#ffb9b9" 
    />

    <path 
      id="Path_298-467" 
      data-name="Path 298" 
      d="M552.137,544.989s.435,16.969-1.305,18.709,20.885,53.082,45.686,30.457,5.656-31.762,5.656-31.762-9.137-16.969-8.7-18.709-40.464,0-40.464,0Z" 
      fill="#ffb9b9" 
    />

    <circle 
      id="Ellipse_72" 
      data-name="Ellipse 72" 
      cx="32.197" 
      cy="32.197" 
      r="32.197" 
      transform="translate(91.435 344.769)" 
      opacity="0.1" 
    />

    <path 
      id="Path_303-473" 
      data-name="Path 303" 
      d="M690.935,597.636l-59.174,20.45s-58.739,13.923-49.6,30.022S630.021,636.8,630.021,636.8l78.8-8.829S740.1,601.552,690.935,597.636Z" 
      fill="#ffb9b9" 
    />

    <circle 
      id="Ellipse_64" 
      data-name="Ellipse 64" 
      cx="32.197" 
      cy="32.197" 
      r="32.197" 
      transform="translate(91.435 344.252)" 
      fill="#ffb9b9" 
    />
  </g>

</svg>
